<svg version="1" xmlns="http://www.w3.org/2000/svg" width="3316" height="3316" viewBox="0 0 2487.000000 2487.000000"><path d="M1117.7 128.6c-.1.1-5.8.4-12.7.8-6.9.3-13.5.8-14.6 1-1.2.3-6.8.7-12.5 1.1-5.7.3-12 .8-13.9 1-1.9.1-8 .6-13.5 1-5.5.3-11.3.8-13 .9-1.6.2-6.6.6-11 1s-9.1.9-10.5 1.1c-1.4.2-6.1.6-10.4 1-4.3.4-8.7.8-9.6 1-.9.2-4.1.6-7.1 1-10.4 1.2-13.4 1.6-15.9 2-1.4.3-4.5.7-7 1-2.5.3-5.6.7-7 1-1.4.3-3.8.7-5.5.9-2.5.4-11.9 2-24 4.1-70.4 12.3-144 37.5-188.2 64.6-8.1 5-20.6 13.1-21.3 13.9-.3.3-3.9 3.1-8.1 6.3-4.2 3.1-12.8 10.3-19 15.8-13.7 12.1-15.8 13.4-22.4 13.1-7.5-.3-10 2.2-12.4 12.3-1.1 4.4-2.3 10-2.6 12.5-.4 2.5-1.3 7.2-2 10.5-.8 3.3-1.7 7.8-2 10-.4 2.2-.8 4.8-1.1 5.7-.3 1-.7 3-1 4.5-.3 1.6-1.2 6.2-2 10.3-.9 4.1-1.8 8.6-2 10-.2 1.4-.7 3.6-1 5-.3 1.4-.8 3.6-1.1 5-.2 1.4-4.3 21.6-8.9 45-4.7 23.4-8.8 43.8-9.1 45.5-.2 1.6-1.6 8.2-2.9 14.5-1.4 6.3-2.7 13.1-3 15-.3 1.9-.7 4.3-1 5.2-.5 1.8-1.1 4.5-2 9.3-.3 1.6-5 25.5-10.5 53-5.6 27.5-10.3 50.9-10.5 52-.2 1.1-.8 4.3-1.4 7.1-.6 2.8-1.3 6.2-1.5 7.6-2.6 14.2-8.9 38.4-10.5 40.1-1.2 1.4-3.7-2-4.5-5.9-2.1-11.2-8.6-18.9-22.5-26.3-11.4-6.1-13.4-8.4-14.4-16.1-1.8-14.2-4.8-22-9.5-24.4-3.8-2-13.5-4.2-22.1-5.1-3.6-.4-7.2-.8-8-1-.8-.2-6.5-.6-12.5-1-6.1-.4-12.8-.9-15-1-15-1-36.4-1.8-50-1.9-15.5-.1-16.2 0-21.5 2.6-10.4 5.1-12.1 8.3-13.7 24.7-.9 10.5-1 48.6 0 55.9 1.9 14.6 8.4 17.5 39.2 17.5 17.3 0 72.8-1.3 77-1.8 13.4-1.7 17.9-3.3 24.8-8.9 5.3-4.2 7.5-8.3 9.3-16.8 2.2-10.5 4.9-12.7 11.4-9.3 4.2 2.2 4.9 6.2 4.9 27.2 0 19.2 1 25.6 4.1 27.3 2.9 1.6 3.5 1.3 9.7-4.1 5.2-4.5 5.9-4.8 7-3.3 2.4 3.3.1 17.7-9.2 57.9-5.2 22.3-6.5 24.7-13.7 25.8-5.7.9-10.9 3.7-12 6.6-1.7 4.4-2.3 11.9-2.2 28.6.1 14.2.4 16.6 2.4 21.2 2.4 5.7 2.4 7.3-.4 21.8-3.1 15.7-2 18.1 8.1 17.2 3.5-.3 6.7-.8 7.2-1.1 1.5-1 13.3-2 22.2-1.9 18 .2 36.7 6 53.9 16.7 3.6 2.2 6.7 4.3 7 4.6.3.3 1.5 1.3 2.8 2.2 13.2 9 36.2 38.8 54.4 70.3 7 12.2 9.7 17 19.9 36.2 14.9 27.8 33.1 65.7 48.4 100.8.7 1.6 2.8 6.1 4.5 10 1.8 3.8 4.9 10.8 7 15.5 2.1 4.7 5.6 12.4 7.9 17.3 2.2 4.8 4.1 9 4.1 9.3 0 4.2 59.3 122.3 78.5 156.4 4.5 8 8.5 15.2 8.9 16 .8 1.8 1.1 2.3 9.5 16 3.5 5.8 7.9 13.2 9.9 16.5 3.5 5.9 20 29.1 22.5 31.7.7.7 3 3.5 5.2 6.3 3.7 4.6 8.1 9.4 23.9 26l5.7 5.9 12.2.2c95 1.5 146.8 1.8 278.2 1.8 85.3 0 181.3-.3 213.5-.8 32.2-.5 62.9-.9 68.4-.9l9.8-.1 6.2-6.1c17-17.2 23.4-24.5 36-41.3 9.1-12.1 27.6-41.1 27.6-43.3 0-.4.4-.9.8-1.1.4-.2 2.3-3 4.1-6.3 6.4-11.4 7-12.4 9.4-16.2 9.4-15 61-117.1 74.7-147.8 3.5-7.7 7.9-17.4 9.8-21.5 12.2-26.5 19.2-42 19.2-42.6 0-.8 7-16.2 15.2-33.3 3.3-6.9 7.8-16.4 10-21 32.1-68.3 62.9-119.5 86.4-143.5 17.4-17.7 39.7-29.4 62.1-32.6 7.9-1.2 27-.9 32.3.4 5.6 1.3 15.8 1.8 17.9.7 1.7-1 2-1.9 1.7-6.9-.4-5.1-1.1-9.9-2.3-15.7-1.4-6.7-1.4-12.4.1-14.8 2.3-3.4 3.3-13.8 3.1-30.2-.3-15.4-1.5-22.3-4.1-24.2-2.2-1.6-8-3.3-11.2-3.3-3.4 0-6.7-3.9-8.5-10-1.5-4.7-7.1-27.5-8.3-33.5-.2-1.1-1.5-7.4-2.8-14-3.3-16.1-3.9-23.6-2.2-26 1.3-1.8 1.5-1.8 4.9 1.5 7.4 7.4 7.4 7.4 10.7 6 4.3-1.8 5.1-5.9 5.1-27.2.1-21.3.8-25.2 4.9-27.3 6.4-3.3 9.2-1.2 11 8.5 1.5 8 4.8 13.9 9.7 17.7 11 8.2 14.7 8.9 58.3 9.9 78 1.9 80.7 1.2 82.8-20.2.8-8.7.8-51.7-.1-56.4-2.3-12.6-6.4-18.2-15.8-21.8-4.8-1.9-7.1-2-21.9-1.7-9.1.2-20.1.6-24.5.9-4.4.3-12.3.8-17.5 1.1-24.1 1.4-24.1 1.4-39 3.1-10 1.1-20.2 3.3-24.5 5.4-5.1 2.5-6.8 6.2-8.6 19-1.7 12.3-2.7 14.2-9.9 18.4-3.3 2-6.4 3.6-6.7 3.6-1.1 0-10.8 6.8-13 9.2-1.2 1.2-3.9 6.8-6 12.2-2.1 5.5-4.3 10.1-4.8 10.3-1.7.5-3.3-4.9-10.3-36.2-1.9-8.4-11.9-56.9-12.8-62.5-.2-1.4-.9-4.6-1.5-7.1-1.1-5.1-1.2-5.5-2.3-11.4-.4-2.2-1.4-7.4-2.3-11.5-.8-4.1-6.6-33.2-12.9-64.5-6.3-31.4-11.6-57.9-11.9-59-.7-3.7-3.4-17-3.9-19.8-.2-1.5-.7-3.5-1-4.5-.3-.9-.7-3.3-1-5.2-.3-1.9-.9-5.5-1.5-8-.5-2.5-2.5-12.6-4.5-22.5s-3.8-18.9-4.1-20c-.2-1.1-2-10.3-4-20.5-5.1-25.9-6.9-28.9-16.3-27.6-6.6.9-9-.6-24.7-15.2-32.2-30.1-73.8-53-133.5-73.3-23.7-8.1-59.1-17.7-75-20.4-1.9-.3-4.3-.8-5.2-1.1-.9-.3-2.5-.6-3.5-.8-2.4-.5-18.3-3.5-20.8-4-4.7-.8-9.3-1.6-13-2.1-2.2-.4-5.1-.8-6.5-1.1-1.4-.2-4.5-.6-7-.9-2.5-.3-5.2-.8-6-1-.8-.2-4-.7-7-1-3-.3-6.6-.8-8-1-1.4-.2-5-.7-8-1-3-.3-6.6-.7-8-1-2.3-.4-7.2-1-15.5-1.9-3-.4-11.3-1.2-21-2.2-2.7-.2-6.6-.7-8.5-.9-12-1.6-58.6-2.9-150-4.1-46.5-.6-176.8-1.2-177.3-.8zm169.8 63.9c6.6.2 19.4.7 28.5 1 27.2.9 36 1.4 68.3 4 4.5.3 10 .8 12.2 1.1 2.2.2 7.4.6 11.5.9 7.6.5 12.1.9 24 2 3.6.4 8.3.8 10.5 1 12 1 18.4 1.6 22 2 2.2.2 6.7.7 10 1 3.3.3 7.6.8 9.5 1 1.9.2 6 .6 9 .9 4.7.5 31.3 3.5 46 5.2 2.5.3 5.5.7 6.6.9 1.2.2 4.8.7 8 1 3.3.4 6.7.9 7.7 1.1 1 .2 6.8 1 13 1.9 6.2.8 12.3 1.7 13.7 2 1.4.3 4.5.8 7 1.1 2.5.3 5.3.8 6.2 1 1 .3 3 .7 4.5 1 5.3.8 8.8 1.4 11.3 1.9 1.4.3 4.5 1 7 1.5 10.9 2.2 18.3 4.1 30 7.4 6.9 1.9 14.1 3.7 16.2 4 13.7 2.1 50.6 23.3 70.7 40.7 47.1 40.7 71.2 92.4 89.6 191.9 1.4 7.4 2.7 14.5 2.9 15.6.3 1.2.7 3.9 1 6 1.5 9.1 4.7 29.2 5.2 32.3.3 1.9.8 5.3 1 7.5.3 2.3.7 4.8.9 5.6.3.8.7 4.2 1.1 7.5 3.7 37.7.3 59.2-11.3 69.6-7.8 7.1-26.4 12.7-40.8 12.4-8.7-.3-22.9-1.9-38.5-4.5-3-.5-7.1-1.2-9-1.5-1.9-.3-4.2-.8-5-1-.8-.2-2.8-.6-4.5-.9-8.7-1.4-10.1-1.7-11.7-2.2-.9-.3-2.7-.7-4-.9-1.3-.3-4.5-.9-7.3-1.5-4.7-.9-6.7-1.3-14-2.5-17.4-3.1-25.6-4.5-29-5-2.2-.3-6.9-1-10.5-1.6-3.6-.6-7.6-1.2-9-1.4-1.4-.2-3.8-.6-5.5-.9-6-.9-11.1-1.7-14.5-2.1-1.9-.3-5.3-.7-7.5-1-2.2-.3-6.7-1-10-1.5-6.4-.9-11.8-1.7-17.5-2.4-1.9-.3-9.1-1.2-16-2.1-6.9-.9-14.1-1.8-16-2.1-1.9-.2-8.9-1.1-15.5-1.9-6.6-.8-14.5-1.7-17.5-2.1-3-.3-6.6-.7-8-.9-1.4-.2-5.4-.6-9-1-3.6-.3-7.8-.8-9.5-1-3.5-.5-9.5-1.2-18-2-3.3-.3-8-.8-10.5-1.1-2.5-.2-6.5-.6-9-.9-2.5-.2-7.2-.7-10.5-1.1-3.3-.3-7.6-.7-9.5-.9-1.9-.2-6.6-.6-10.5-1-3.8-.3-9.2-.8-12-1-2.7-.3-7.7-.7-11-1-3.3-.3-8.9-.7-12.5-1-14-1.1-18.8-1.5-28-2-5.2-.3-12.4-.8-16-1-37.9-2.5-56.4-3-112.5-2.9-47.5 0-72.4.5-95.5 1.9-4.1.3-11.5.7-16.5 1-4.9.3-11.7.8-15 1-3.3.2-10.3.7-15.5 1-5.2.3-11.1.8-13 1-1.9.2-7.1.7-11.5 1-8.6.6-15.4 1.2-22.5 2-2.5.2-8.1.7-12.5 1.1-4.4.3-8.7.8-9.5.9-.8.2-4.6.6-8.5 1-3.8.3-8.6.8-10.5 1-1.9.3-6.2.7-9.5 1-7.3.8-9.2 1-27 3-7.7.8-15.6 1.8-17.5 2.1-1.9.2-5.5.7-8 .9-5.9.6-13.8 1.6-16.1 2-1 .2-4.9.7-8.6 1-3.7.4-7.6.9-8.7 1.1-1 .2-4.4.6-7.5.9-3.1.4-6.3.8-7.1 1-.8.2-3.5.7-6 1-2.5.3-6.3.8-8.5 1.1-2.2.3-5.1.7-6.5.9-1.4.2-4.3.6-6.5 1-2.2.3-5.3.8-7 1-3.9.5-29.6 4.3-33.2 4.9-4 .7-16.4 2.7-19.3 3.1-1.4.2-7.9 1.3-14.5 2.5-6.6 1.1-13.6 2.3-15.5 2.6-1.9.3-10.9 2.1-20 4s-18.1 3.7-20 4c-1.9.3-4.2.7-5 .9-8.4 2.4-30.5 4.4-45 4.1-13.5-.3-16.4-.7-22.6-2.9-11.8-4.2-19.4-9.9-23.3-17.6-4.2-8.1-5.1-15.2-4.7-35.1.3-10.2.7-20.3 1.1-22.5.3-2.2 1-7.8 1.6-12.5.6-4.7 1.2-9.6 1.4-10.9.3-1.3.7-4.5 1-7 .4-2.5 1-6.9 1.5-9.6.5-2.8 1.2-7 1.5-9.5.3-2.5 1.1-6.9 1.6-9.9.6-3 1.2-6.4 1.4-7.5.2-1.8 1.2-7.5 2.9-16.6 2.7-14.4 4.4-22.1 8.2-37.5 2.5-9.9 5.7-21.8 7.1-26.5 1.5-4.7 2.8-9 2.9-9.5.2-.6 1.8-5.3 3.7-10.5 16.9-47.2 39.9-80.7 74.2-108.5 11.4-9.3 21.1-15.2 41.3-25.4 10.7-5.4 14.7-6.8 30.2-10.7 5.8-1.5 15.2-3.9 21-5.4 5.8-1.5 14.6-3.5 19.5-4.4 5-.9 11-2.1 13.5-2.6 2.5-.6 7.4-1.4 11-2 3.6-.5 7.6-1.2 9-1.4 2.4-.4 21.6-3.3 27-4.1 1.4-.2 4.3-.6 6.5-.9 2.2-.3 5.8-.8 8-1.1 2.2-.3 5.6-.7 7.5-1 1.9-.2 5.8-.7 8.5-1 7.2-.8 21.4-2.5 25.5-3 1.9-.2 6.2-.7 9.5-1 3.3-.3 7.6-.8 9.5-1 4.1-.6 11-1.2 20-2 3.6-.3 8.5-.7 11-1 17.4-1.7 43.7-3.9 61-5 4.1-.3 10.9-.7 15-1 4.1-.3 12.2-.7 18-1.1 5.8-.3 12.1-.7 14-.9 1.9-.2 8.9-.6 15.5-1 6.6-.3 13.8-.8 16-1 2.2-.3 7.6-.7 12-1 4.4-.4 8.2-.9 8.5-1.1.5-.6 74.5.3 95.5 1.1zm-24.1 399.9c6.2 1.5 10.6 4.8 10.6 8.2 0 2.6-3.4 4-13.2 5.4-3.3.5-6.8 1.6-7.7 2.5-1.5 1.4-1.6 22.2-1.6 225.2v223.7l-3 .8c-9.4 2.6-11.5 1.3-11.6-7-.1-3.1-.3-10.2-.4-15.7-.4-11.4-.7-132.6-.6-274 .1-119-.3-151.1-1.9-153-1.2-1.4-3.4-2-11.3-3-14.2-1.7-12.5-10.1 2.8-13.9 2.8-.7 34.4 0 37.9.8zm87.6 15c11.1.9 16.1 1.3 48.5 4.1 4.8.4 17.3 1.5 23.5 2 8.4.6 18.5 1.6 22.5 2 2.2.2 7.6.7 12 1 4.4.4 9.1.8 10.5 1 1.4.2 7 .7 12.5 1.1 5.5.3 10.7.8 11.5.9.8.2 4.9.6 9 .9 4.1.4 9.5.9 12 1.1 2.5.3 7.4.7 11 1.1 3.6.3 8 .7 9.9.9 1.8.3 7.2.7 11.9 1.1 4.7.3 9.2.7 10.1.9.9.2 5.4.6 10 1 4.7.4 9.2.8 10 1 .9.2 5.4.6 10 1 4.7.4 9.2.8 10.2 1 1 .2 4.9.7 8.6 1 3.7.4 7.9.8 9.3 1 1.4.2 5.2.7 8.5 1 3.3.3 7.8.8 10 1 7.6 1 11 1.4 15.7 1.9 2.6.3 6.2.8 8 1 1.8.3 5.6.8 8.3 1.1 2.8.4 6.6.8 8.5 1.1 1.9.2 5 .7 6.8 1 1.7.3 4.9.7 7 1 14.4 1.8 44.4 7.5 56.7 10.9 20.8 5.6 33.4 12.8 38.2 21.8 2.8 5.2 2.4 16-.8 22.2-4.3 8.5-9 16.8-13.1 22.8-2.1 3.2-3.8 6-3.8 6.2 0 .1-7.1 11.5-15.8 25.1-8.8 13.7-21.1 33.4-27.4 43.9-6.3 10.4-17.2 28.4-24.1 39.9-7 11.5-12.7 21-12.7 21.2 0 .2-3.8 6.6-8.5 14.3-4.7 7.8-8.5 14.3-8.5 14.5 0 .3-3.5 6.5-7.9 13.9-17.4 29.6-44.7 83-69.1 135.2-2.1 4.4-6.1 12.9-9 19-2.9 6-6.9 14.6-9 19-18.2 38.8-47.7 97.7-60.3 120.8-38.2 69.3-58.4 97-87.1 119.2-2.2 1.6-5.1 3.9-6.5 5-12.8 10.1-29.9 19.3-41.1 22.1-8.1 2.1-26.4 2.3-34 .5-17-4.2-29.3-13.7-41.6-32.4-12.1-18.3-14.9-27.8-16.8-55.7-1.4-19.5-1.7-46.9-2.1-182.2-.2-78.3-.7-154.2-1-168.8-.9-44-1.9-75.9-3-97-.2-4.7-.7-15.7-1-24.5-.4-8.8-.8-19.8-1.1-24.5-.3-4.7-.7-30.6-.9-57.5-.5-51.3 0-59.3 4-69.2 1.9-4.8 7.1-9.8 12.4-12 2-.8 5-2.1 6.6-2.8 4.1-1.8 10-3.6 13.8-4.2 1.8-.3 3.3-.6 3.5-.7.4-.5 27.3.2 35.2.8zm-173.5 1c12 2.5 18.1 5.4 24.6 11.9 5.6 5.6 8.6 12.5 9.3 21.7.7 8.1.7 57 .1 76.5-.9 30-1.6 48.7-2 57-.2 4.9-.7 15.5-1 23.5-.3 8-.8 17.4-1 21-.4 6.8-1.4 43.2-2.1 72.5-.2 9.3-.6 81.1-.8 159.5-.5 130.6-1.1 187.8-2.1 197-.2 1.9-.7 6.6-1 10.5-.9 10.1-3 20.2-5.5 26.5-4.1 10.3-17.6 31.3-23.5 36.5-9.9 8.6-21.7 14.7-31.5 16.2-8.4 1.3-21.8.8-31.8-1.2-17.3-3.4-50.5-26.2-71.1-49-9.1-10.1-23-29.3-33.9-47-1.4-2.2-3.3-5.2-4.4-6.7-1-1.5-1.8-2.9-1.8-3.2 0-.2-1.7-3.3-3.8-6.7-4.1-6.7-7.1-12-13-22.9-1.9-3.6-4.7-8.8-6.2-11.5-8.1-14.9-50-97.6-50-98.9 0-.2-3.8-8.2-8.3-17.7-9.7-20.1-15.1-31.4-20.6-43.1-21.4-45.6-44.2-90.9-58.9-116.8-3.6-6.3-7.3-12.9-8.3-14.7-1-1.7-2.9-5-4.3-7.2-1.5-2.2-2.6-4.3-2.6-4.6 0-.2-1.8-3.4-4-7-2.2-3.5-8.7-14.8-14.5-25-5.9-10.2-12.9-21.9-15.6-26.1-2.7-4.1-6.1-9.6-7.6-12.2-1.4-2.6-6.2-10.5-10.7-17.7-9.2-14.7-10.1-16.2-11.6-19-1.4-2.8-16.7-26.7-18-28.2-.5-.7-1-1.4-1-1.7 0-.3-4.6-7.6-10.3-16.3-8.7-13.3-18-28.5-21.8-35.5-3.7-7-4.8-15.2-2.8-22.2 1.4-5 8.8-12.4 15.9-16.1 10.4-5.2 30.7-11.2 51-15 1.4-.3 3.6-.7 5-1 1.4-.2 4.5-.7 7-1 2.5-.4 6.3-1 8.5-1.5s6-1.1 8.5-1.4c2.5-.3 9-1.2 14.5-2s12.3-1.7 15-2c2.8-.4 8.4-1.1 12.5-1.6s9.8-1.2 12.5-1.5c2.8-.3 6.6-.8 8.5-1 1.9-.2 6.7-.7 10.5-1 3.9-.4 7.7-.8 8.5-1 .8-.2 4.7-.7 8.5-1 3.9-.3 8.6-.8 10.5-1 1.9-.3 6.2-.7 9.5-1 3.3-.3 7.6-.8 9.5-1 1.9-.3 6.4-.7 10-1 3.6-.3 8.5-.8 11-1 6.3-.7 13.4-1.3 21-2 3.6-.3 8.5-.7 11-1 2.5-.3 7.4-.7 11-1 3.6-.3 8.5-.8 11-1 7-.6 27.9-2.5 34.5-3 3.3-.3 8.3-.8 11-1.1 2.8-.2 7.7-.7 11-.9 3.3-.3 8-.7 10.5-1 2.5-.2 7.9-.7 12-1.1 4.1-.3 8.9-.7 10.5-.9 2.6-.3 8.7-.8 23-2 1.7-.2 7.7-.6 13.5-1s10.6-.8 10.8-1c.6-.5 42.7.3 45.7.9zm70.3 469.6c1.2 1.1 4 5.7 6.2 10.2 2.2 4.4 4.9 9.2 6 10.5 5 6.3 8.4 28.3 5.6 36.4-1.9 5.3-9.3 15.1-15.4 20.1-6.4 5.3-12.1 3.1-20.9-7.8-8.1-10-8.8-11.8-8.7-21.9.2-11.9 2.5-21.3 6.8-27.5 1.9-2.8 4.8-7.8 6.4-11.3 5.1-10.5 9.2-13.1 14-8.7zm3.7 117.4c6.3 2.6 7.8 7.8 6.2 20.6-.7 5.5-1.5 16.8-2.2 33-.6 11.7-.5 67.7 0 71.8.3 1.8 1 4.3 1.7 5.5.7 1.3 1.3 8.5 1.6 17.7.5 17.2-.7 24.8-5.2 31.9-8 12.6-17.4 10-22.8-6.4-2-6.1-2.3-9-2.3-23 0-9.9.5-17.3 1.2-19.5 1.9-5.5 2.4-12.8 2.3-39 0-31.2-.9-55.4-2.6-71.5-.9-8.3-.9-8.5-.1-13.1 1.5-8.7 11.6-12.4 22.2-8z"/><path d="M565.9 865.1c-2 .5-6.8 2.2-10.5 4-21.1 9.7-22.7 10.3-32.4 11.4-3 .4-8.5 1.3-12.2 2.1-3.7.7-8.1 1.6-9.7 1.9-23.5 4.1-70.7 17.2-86.6 24-17.1 7.3-26.7 11.8-36 16.8-33.7 18-60 42-75 68.3-4.2 7.2-13.9 29.1-15.1 33.9-.1.5-1.3 4.1-2.7 8-6 16.4-16.5 62.8-19.2 84.5-.3 2.5-.8 5.6-1 7-.6 3.7-1.5 9.9-2 14.5-.3 2.2-.9 7.1-1.5 11-.5 3.8-1.2 9.7-1.5 13-.3 3.3-.7 7.8-1 10-.5 6-1.6 24.5-2 38-.5 14.6-.5 82.9 0 94 2.1 45.4 3.9 62.1 7.7 72.4l2 5.4 3.1-5.6c2.4-4.6 3.9-6.1 8.1-8.2 5-2.5 5.3-2.6 23.1-2 9.9.3 19.4.7 21 .9 2.8.4 11.4 1.2 22.5 2.1 2.5.3 6.3.6 8.5.9 2.2.3 6.7.8 10 1.1 3.3.3 7.4.8 9 1 1.7.2 5.3.7 8 1 2.8.3 6.4.7 8 1 1.7.2 6.2.7 10 1 3.9.4 8.2.8 9.6 1.1 1.4.2 5.2.6 8.5.9 3.2.3 7.3.7 8.9 1 1.7.2 6.4.7 10.5 1 8.5.7 15.4 1.3 22 2 2.5.2 8.3.7 13 1 4.7.3 10.5.8 13 1 2.5.3 8.6.7 13.5 1 5 .3 11.5.7 14.5 1 6.9.6 20.4 1.4 34 2 5.8.3 14.3.7 19 1 4.7.3 14.4.7 21.5 1 7.2.3 17.1.8 22 1 5 .2 17.3.6 27.5 1s22.9.8 28.3 1c10.3.4 45.2 1.4 104.7 3 12.4.3 28.1.8 35 1 6.9.2 21.5.7 32.5 1.1 11 .3 24.3.7 29.5.9 16 .6 39.4.6 41.7.1 3.7-.8 6.3-2.6 6.3-4.3 0-2.4-4.4-9.6-12.5-20.3-17.3-22.9-37.8-55.6-57.9-92.3-2-3.7-4.5-8.2-5.5-10-1-1.8-4.6-8.6-8.1-15.2-3.4-6.6-7.3-13.8-8.5-16-3.2-5.6-22-43.3-30-60-13.9-29.2-49.5-107.9-49.5-109.5 0-1.9-33-69-51-103.5-9.7-18.7-23.6-42-29.2-49-.5-.6-3.1-3.9-5.9-7.5-19.4-24.8-26.4-31.3-43.4-39.8-14.9-7.4-35.6-11.4-46.6-9.1zm-4.1 181.9c8.9 1.6 18.6 4.3 24.7 7 1.1.5 4.9 2.1 8.5 3.7 16.5 7 29.9 16.4 43.1 30 13.1 13.5 20.4 23.3 27.4 37.2 5.3 10.5 9.7 23.6 11 33.1.4 2.4.8 4.7 1 5 1.7 2.8 2.6 40.4 1.2 53.3-1.5 14.9-11.8 40.6-22.7 56.8-17.4 25.9-40.7 45.3-67.1 55.7-9.5 3.8-24.5 7.9-32.4 8.9-7.7 1-34.5 1-41 .1-29.9-4.5-57-18.2-78.4-39.6-11.8-11.8-12.9-13.1-20.3-23.4-10.2-14.4-19.5-36.3-21.4-50.8-.3-2.5-.8-4.7-.9-5-1.6-2.7-2.4-32.8-1.2-45.1 3.1-31.8 16.8-60.6 40.2-84.3 15.1-15.3 25.3-23.1 40-30.4 9-4.5 26.7-10.7 33.5-11.7 2.5-.4 6.5-1 9-1.4 9.1-1.5 35.3-1 45.8.9zM1901.7 865.6c-.1.1-2 .5-4.2.8-10.5 1.7-28.1 9.2-37.6 16.2-10.8 7.9-37.5 39.8-44.5 53.2-1.3 2.6-4.3 7.6-6.5 11.2-7 11.1-15 26.1-31.5 59.1-10.8 21.7-26.4 53.8-26.4 54.5 0 .2-5.2 12-11.6 26.1-6.4 14.2-13.2 29.4-15.1 33.8-9 20.9-7.8 18.2-23.8 52-6.5 13.8-39.1 78.8-46.1 92.1-5.6 10.8-18.8 34.6-22.8 41.4-1.2 2-2.6 4.5-3.3 5.5-12.9 22.1-28.4 45.8-43.5 66.9-9.4 13-12.9 19.2-12.1 21.2.9 2.4 7 2.7 43.2 1.9 36.7-.7 41.5-.8 78.1-1.9 11.8-.4 27.8-.9 35.5-1.1 13.9-.4 40.8-1.2 64-2 20.1-.7 60.6-2.2 78.5-3 6.3-.3 16.7-.7 23-1 6.3-.3 15.6-.7 20.5-1 5-.3 14.2-.7 20.5-1 6.3-.3 14.2-.7 17.5-1 3.3-.2 11-.7 17-1 14.8-.8 34.6-2.1 43.5-3 2.5-.2 8.1-.7 12.5-1 11.2-.8 18.4-1.4 23-2 2.2-.2 6.9-.7 10.5-1 3.6-.3 9.9-1 14-1.5s10.4-1.2 14-1.5c3.6-.3 7.6-.8 9-1 1.4-.2 5.4-.7 9-1 3.6-.3 7.6-.8 9-1 1.4-.2 5.4-.7 9-1 3.6-.3 10.1-1 14.5-1.5s11.8-1.2 16.5-1.6c4.7-.3 9.4-.8 10.4-1 1.1-.2 9.4-.6 18.5-1 22.9-.9 27.1.5 33 10.8l2.9 5 2.1-5.6c1.1-3.1 2.3-7.1 2.6-8.8.3-1.8.8-4.4 1-5.8 4.4-21.5 5.8-97 3.1-155.5-.7-14.6-1.6-28.4-2.1-33-.2-2.2-.7-7.6-1-12-.4-4.4-.8-9.1-1-10.5-.2-1.4-.7-5.2-1-8.5-.3-3.3-.8-7.4-1-9-1.4-11.3-2.7-20.4-3-22.5-.3-1.4-.8-4.5-1.1-7-.3-2.5-.8-4.7-.9-5-.2-.3-.6-2.6-1-5-.3-2.5-1-6.3-1.5-8.5s-1.1-5.4-1.4-7c-4.2-22.9-15.2-58-24.2-77-3.9-8.2-11.4-20.9-16.3-27.5-21.9-29.3-68-58.1-120.5-75.5-13.2-4.3-35.8-10.6-45.2-12.5-2.7-.5-9.2-1.9-14.4-3-15-3.3-24.1-5-30-5.6-6.3-.7-11.8-2.4-21-6.6-13.1-6.1-20.8-8-33.8-8.3-3.4 0-6.4 0-6.5.1zm70.4 180.4c20.1 3.2 39.2 10.6 54.6 20.9 31.6 21.2 54.8 52.8 63.2 85.7 4.3 16.9 5.8 41.1 3.7 58.9-4.5 37.5-20.8 66.9-53 95.3-15.1 13.4-40.3 25.4-62.6 29.8-15.7 3.1-44.3 2.8-55.5-.6-1.6-.5-4.1-1.1-5.5-1.4-8.6-1.4-27.4-9.2-39.5-16.4-12.9-7.6-30.8-23.1-38.4-33.2-1.4-1.9-3.4-4.4-4.4-5.5-3.7-3.9-12.8-20.5-16.7-30.2-3.9-9.8-8.2-25.6-9.5-34.6-.4-2.7-.9-5.9-1.1-7-.7-3.2-.7-30.5 0-35.7 4.8-34.4 17.4-59.9 41.6-84 25.1-25.1 53.4-38.7 90-43.3 5.4-.6 26.1.1 33.1 1.3zM339.1 1445.1c-2.5.5-4.9 1.3-5.5 1.9-1.1 1.1-1.3 16.3-.6 40.7.2 9.7.4 10.3 2.4 10.4 4.4.2 8.4.7 16.6 1.7 4.7.6 10.8 1.4 13.5 1.7 2.8.3 6.6.8 8.5 1 1.9.3 6 .7 9 1 3 .3 6.9.8 8.5 1 1.7.2 6.6.7 11 1 4.4.4 8.7.9 9.5 1 9.4 1.7 44.5 2.4 46 .9 1.4-1.4 1.9-9.2 2-29.4 0-16.5-.4-24.7-1.2-25.5-.4-.4-11.5-1.7-24.3-2.9-5.4-.5-9.7-.9-24.5-2.1-2.5-.2-9-.6-14.5-1s-12.2-.9-15-1.1c-10.9-.9-37.2-1.1-41.4-.3zM2102.8 1445.6c-.2.1-5.7.5-12.3.8-6.6.4-13.6.8-15.5 1-1.9.2-7.1.7-11.5 1.1-4.4.4-8.9.9-10 1-1.1.2-4.7.6-8 1-12.4 1.3-18.4 2.6-18.9 4.3-2.1 7-2.5 44-.6 50.7l1.3 4.6 7.6-.6c4.2-.3 11-.7 15.1-1 14.1-1 37.7-3 46.5-4.1 2.2-.2 6.3-.7 9-1 2.8-.3 8.4-.9 12.5-1.4 4.1-.5 9.8-1.2 12.5-1.5 2.8-.4 6.1-.8 7.5-1 1.4-.2 4.8-.7 7.5-1 2.8-.4 5.7-.9 6.6-1.1 1.4-.4 1.6-3.5 1.5-26.2l-.1-25.7-25.2-.1c-13.9-.1-25.4 0-25.5.2zM301.3 1525.7c-1.6.3-2.4 1.4-2.9 3.9-.6 3 0 21.1 1.1 33.4.6 6.8 1.6 17.6 2 20.7.2 1.5.6 6.4 1 10.8.3 4.4.8 9.1 1 10.5.2 1.4.7 5 1 8 .3 3 .8 6.8 1 8.5.2 1.6.6 6.1 1 10 .4 3.8.9 7.9 1.1 9 .2 1.1 1.3 9.2 2.4 18 1.1 8.8 2.2 17.1 2.4 18.5.3 1.4.7 4.3 1 6.5 2 15.3 6.1 41.2 8.1 51 .8 3.8 1.6 8.1 1.9 9.5.2 1.4 1.2 5.9 2.1 10 .9 4.1 1.8 8.6 2.1 9.9 1.6 7.6 8.8 34.1 11.7 43.3 6.3 19.2 15.8 36.1 24.8 44.3 5 4.5 12.2 9.3 18.7 12.3l5.7 2.7h37c33.3-.1 59.6-.8 66.5-1.9 1.4-.3 5.1-.7 8.2-1.1 16-1.7 28.2-8.4 34.2-18.8 4.3-7.5 10.1-29.1 12.1-45.2.3-2.2.7-5.1 1-6.5.2-1.4.7-4.5 1-7 .3-2.5.7-6.1 1-8 .5-3.4 1.1-10.1 2-21 .2-3 .7-7.5.9-10 .3-2.5.8-8.8 1.1-14 .4-5.2.8-12 1-15 .4-5.9 1.5-28.2 2-42 .2-4.7.7-13.7 1-20 2.2-41.2 3-49 5.1-50.6 1.7-1.3 6.2-.9 14.9 1.3 3.3.8 6.7 1.6 7.5 1.8.8.2 6.7 1.5 13 3 6.3 1.4 14.8 3.3 19 4 4.1.8 8.9 1.7 10.5 2 1.7.3 4.8.8 7 1.1 2.2.2 5.1.7 6.5 1 1.4.4 3.9.8 5.5 1 1.7.2 5.7.9 9 1.4 3.3.5 8.3 1.2 11 1.6 2.8.4 5.7.9 6.5 1 .8.2 3.3.5 5.5.8 2.2.2 13.2 1.6 24.5 3s22.5 2.9 25 3.2c2.5.3 5.9.7 7.5.9 5.4.7 11.9 1.5 17.5 2 3 .3 7 .8 8.7 1.1 1.8.2 5.4.7 8 .9 2.7.3 6.6.7 8.8 1 2.2.2 6.3.7 9 1 5.3.6 12 1.3 17 2 1.7.2 5.5.6 8.5.9l11 1.1c3 .3 7.1.7 9 1 3.7.5 9.3 1 20 2 3.6.4 7.2.8 8 1 .8.2 4.7.6 8.5.9 3.9.4 9 .9 11.5 1.1 6.2.7 15.3 1.6 30.8 3 3.5.4 7.1.8 8 1 .9.1 5.3.6 9.7 1 4.4.3 9.4.8 11 1 1.7.2 6.6.7 10.9 1 4.4.4 9.3.8 11 1 1.7.2 6 .6 9.6 1 7.1.6 15.3 1.4 21.5 2 2.2.2 7.2.7 11 1 3.9.3 9 .8 11.5 1 2.5.2 7.4.7 11 1 3.6.3 8.5.8 11 1 4.4.5 7.3.8 21.5 2 6.7.5 9.4.8 24.5 2 3.6.3 9.1.7 12.3 1 3.1.3 8.4.7 11.7 1 3.3.3 8.6.7 11.8 1 3.1.3 8.4.7 11.7.9 17 1.3 27.8 2.1 40.5 3.1 12.5 1 15.3 1.2 29 2 6.9.4 14.1.9 16 1.1 4.3.4 45.6.5 52.5 0 2.8-.2 10.2-.6 16.5-1 6.3-.4 13.5-.9 16-1.1 2.5-.2 8.3-.7 13-1 4.7-.3 11-.8 14-1 3-.2 8.9-.7 13.1-1 4.2-.3 9.4-.7 11.5-.9 2.2-.2 8.2-.7 13.4-1.1 5.2-.3 11.1-.8 13-1 1.9-.2 7.1-.6 11.5-.9 4.4-.4 9.8-.9 12-1.1 2.2-.3 7.4-.7 11.5-1 4.1-.4 9.1-.8 11-1 1.9-.2 7.3-.6 12-.9 10-.8 19-1.6 33.8-3.1 2.6-.2 7.9-.7 11.7-1 3.9-.3 8.6-.7 10.5-1 1.9-.2 6.9-.7 11-1 4.1-.3 9.1-.8 11-1 4.1-.4 13.2-1.3 21.5-2 6.4-.6 13.5-1.3 20-2 2.2-.3 6.9-.7 10.5-1.1 3.6-.3 7.6-.7 9-.9 1.4-.1 5.9-.6 10-.9 4.1-.4 9.1-.9 11-1.1 1.9-.3 6-.7 9-1 8.9-.8 16.3-1.6 19.5-2 1.7-.2 5.9-.7 9.5-1 3.6-.3 7.6-.8 9-1 1.4-.2 5.2-.7 8.5-1 10.9-1 16.9-1.6 24.5-2.6 4.2-.5 10.3-1.2 13.5-1.5 3.3-.2 7.1-.6 8.5-.9 1.4-.2 5.4-.6 9-1 3.6-.4 7.6-.8 9-1 1.4-.2 5-.7 8-1 3-.3 7.1-.7 9-1 4.9-.6 10.6-1.3 17-2 3-.3 6.6-.8 8-1 1.4-.3 5-.7 8-1 3-.3 6.6-.7 8-1 1.4-.2 5-.6 8-1 7.8-.9 13.1-1.6 16-2 1.4-.2 6.3-.9 11-1.5 12.5-1.7 14.9-2 21-3 3-.6 7.5-1.2 10-1.5 2.5-.3 6.5-1 9-1.5s6.5-1.2 9-1.6c2.5-.5 4.7-.8 5-.9.3-.1 2.5-.5 5-.9 2.5-.5 5.4-1 6.5-1.3 1.1-.2 4.9-1.1 8.5-1.8 3.6-.7 12.1-2.7 19-4.4 14.7-3.6 19.6-4.2 20.9-2.7 1.9 2.3 3.1 18.2 5.6 73.1.9 20.8 1.6 33 2 37.5.3 2.5.7 9.4 1 15.5.3 6 .8 12.8 1 15 .2 2.2.7 6.9 1 10.5 1.1 12.9 1.3 14.8 4 34.7.2 1.6.6 5 1 7.8.3 2.7.8 5.7 1 6.5.2.8.7 3 1 4.7 3.3 19.9 9.4 35.3 16.4 41.6 12.6 11.4 24.5 13.2 93.2 14.3 45 .8 47 .6 59.5-7 9.1-5.5 15-10.7 19.4-17.1 5.5-8 14.4-27.5 17.5-38.5.7-2.5 2.9-9.9 4.8-16.5 3.4-11.8 7.1-26.7 8.2-33.5.3-1.9 1-5.1 1.5-7 .5-1.9 1.2-5.2 1.6-7.4.3-2.1.8-4.8 1-6 .9-4.5 3.3-18.3 3.8-21.6.3-1.9.8-4.6 1-6 1.2-6.3 5.4-35.7 6.1-42 .3-3 .8-6.6 1-8 1-7.2 1.5-11 2-16 .3-3 .8-6.9 1-8.5.4-2.8 1.1-9.3 2-19 .6-5.8 1.7-16.6 2-19.5.2-1.4.6-6.6 1-11.5.3-5 .8-10.6 1-12.5.8-8.3 1.7-25.2 1.9-33.5l.1-9-7.5.1c-4.1 0-9.1.4-11.1.7-2 .4-6.2.9-9.4 1.3-3.2.3-6.7.7-7.8 1-1 .2-10.3 1.3-20.5 2.4-10.3 1.1-20 2.2-21.7 2.5-1.6.2-5.7.7-9 1-3.3.3-7.3.8-9 1-1.6.2-5.7.7-9 1-3.3.3-7.4.8-9.1 1-1.7.2-5.7.7-9 1-3.2.3-7 .8-8.4 1-1.4.2-5.6.7-9.5 1-3.8.3-8.1.8-9.5 1-3.1.5-9.9 1.3-27.5 2.9-3.8.4-8.6.9-10.5 1.1-1.9.3-6.6.7-10.5 1-3.8.3-8.1.8-9.5 1-1.4.2-5.9.7-10 1-4.1.3-8.6.8-10 1-1.4.2-6.3.7-10.8 1-4.6.4-9.1.8-10 1-1 .1-6 .6-11.2 1-5.2.4-10.2.8-11 1-.9.2-6 .6-11.3 1-5.4.3-10.5.8-11.5 1-.9.1-6.6.6-12.6 1s-11.6.8-12.5 1c-.9.1-6.3.6-12.1 1s-12.3.8-14.5 1c-2.2.2-8.7.7-14.5 1-5.8.4-12.1.8-14 1-12.3.9-35.4 2-59 3-9.6.3-21.5.8-26.5 1-10.6.4-48.2 1.5-67.5 2-7.4.2-25.6.6-40.5.9-138.6 3.3-268.4 5-397.5 5-50.9 0-111.6-.3-135-.8-73.5-1.3-79.7-1.4-113.5-2.1-18.1-.3-41.3-.8-51.5-1-10.2-.2-30.4-.7-45-1-14.6-.3-34.1-.8-43.5-1-9.3-.3-25.1-.7-35-1-48.4-1.3-99.2-3.4-146-6-7.9-.4-24.1-1.5-28.5-2-1.9-.2-7.3-.6-12-1-4.7-.3-10.3-.8-12.5-1-2.2-.2-7.1-.7-11-1-3.8-.4-8.1-.8-9.5-1-1.4-.2-5.9-.6-10-1-4.1-.3-9.5-.8-12-1-10.3-1.1-13.8-1.4-20.5-2-3.8-.3-8.6-.8-10.5-1-1.9-.3-6.6-.7-10.5-1-3.8-.3-8.1-.8-9.5-1-1.4-.2-5.4-.7-9-1-3.6-.3-8.1-.8-10-1-1.9-.2-6.6-.7-10.5-1-3.8-.4-8.3-.8-10-1-1.6-.2-5.7-.6-9-1-3.3-.3-7.8-.8-10-1-2.2-.2-8.7-.9-14.5-1.5-5.8-.6-11.6-1.2-13-1.4-1.4-.3-5.7-.7-9.5-1-3.9-.4-8.1-.8-9.5-1.1-1.4-.2-5.2-.6-8.5-.9-3.3-.3-7.1-.8-8.5-1-1.4-.3-5.6-.7-9.5-1.1-3.8-.3-8.6-.8-10.5-1-1.9-.3-12.5-1.6-23.5-3s-20.9-2.7-22.1-2.9c-1.2-.2-4.5-.7-7.5-1.1-3-.3-6.1-.7-6.9-.9-.8-.2-2.5-.1-3.7.1zM924.8 1956.5c-14.9 4.1-23.8 15.6-24.1 30.8-.2 8.6 1.5 14.6 6 20.9 13.5 18.8 45 18.3 58.2-.9 9.5-13.9 6.4-35-6.6-44.9-8.3-6.3-22.9-8.9-33.5-5.9zM1047.3 1993.8l-20.3.2-.1 4.8c-.1 9.6.1 25.5.4 25.8.1.1 2.9.5 6.2.8 3.3.4 7.4.8 9 1 6.2.8 19 2 19.7 1.8.4-.1.8 5.8 1 13.1.5 20.2.2 259.6-.3 260.1-.2.2-3.8.7-7.9 1.1-4.1.4-8.8.9-10.5 1.1-1.6.2-6.1.7-10 1-3.8.3-7.2.7-7.3.9-.6.6-.5 29.2.1 30.2.4.6 173.7 1 176.7.4.6-.1.6-29.9-.1-30.5-.2-.2-3.9-.7-8.2-1.1-4.3-.3-8.8-.8-10-1-1.2-.2-6-.6-10.7-1-4.7-.4-8.7-.8-8.9-1-.2-.2-.4-27.7-.5-61.2l-.1-60.8 10.4-.1c21.1-.3 31.1 5 38.5 20.2 4.6 9.3 7.3 22.5 9.1 44.9.3 3.3.7 6.9.9 8 .2 1.1.7 6.3 1.1 11.5.4 5.2.8 9.7 1 10 .1.3.6 3.6.9 7.5 3.3 36.3 21.6 55.2 59.1 60.9 10.7 1.7 39 2.3 49 1.2 1.7-.2 5.9-.6 9.5-1 3.6-.4 12.4-1.9 19.5-3.5l13-2.7.1-15.2c.1-8.4-.2-15.4-.5-15.6-.3-.3-3.5-.7-7.1-1.1-15.7-1.6-29.1-3.3-29.6-3.7-.6-.7-1.1-3.4-1.8-10-.4-2.9-.8-6.2-1-7.3-.2-1.2-.7-5-1-8.6-.4-3.6-.8-7.6-1.1-9-.2-1.3-.6-4.7-.9-7.4-.4-2.8-.8-6.1-1.1-7.5-.2-1.4-.7-4.7-1-7.4-3.3-26.9-12.5-47.4-27.2-60.5-9.4-8.4-30.9-17.9-46.3-20.5-1.9-.3-4.7-.8-6.2-1.1-1.6-.3-4.2-.7-5.8-.9-5.1-.6-4.3-1.2 3.6-2.5 14.9-2.5 34.1-9.2 46.8-16.4 19.7-11.1 32.9-27.8 37.1-46.8 1.4-6.5 1.4-26 0-32.9-4.9-24.7-24.1-45.3-52-56.1-9.6-3.7-28.1-8.5-36.7-9.4-3.5-.4-7.2-.9-8.3-1.2-3.7-1-146.2-2.1-190.2-1.5zm152 35.1c21.8 5.7 35.2 20.6 38.5 42.9 1.3 9 .6 30.3-1.3 36.7-6.3 21.7-19.1 33.1-42.6 38.1-1.3.2-8.1.7-15.1.9-9.3.3-12.7.1-13-.8-.8-2.2.2-111.2 1.1-119.3.2-1.9 23.4-.8 32.4 1.5zM1421.8 1993.8l-29.8.2v15.5c0 15.4 0 15.5 2.3 15.6 1.2 0 3.1.2 4.2.4s5.8.7 10.5 1.1c4.7.3 8.8.8 9.1 1 .3.1 2.6.4 5.1.5 3.3.2 4.8.7 5.1 1.8.6 2.3.3 270.8-.3 271.4-.3.3-3.2.8-6.5 1.1-11.8 1.1-18.7 1.8-20.3 2.1-.9.2-3.4.4-5.5.4l-3.8.1.3 15.7.3 15.7h177l.3-15.7.3-15.7-2.8-.1c-1.6-.1-3.9-.2-5.3-.4-1.4-.1-5.4-.5-9-.9-14.9-1.4-18.5-1.9-19.3-2.3-.4-.3-.7-2.6-.7-5.1.1-2.6.1-63.6.1-135.6-.1-72 .1-131.2.4-131.5.7-.7 3.1-1 21-2.7 3.9-.4 8.1-.8 9.5-.9 1.4-.2 3.3-.3 4.3-.4 1.5-.1 1.7-1.5 1.7-15.6V1994h-34.7c-19.2 0-45.8-.1-59.3-.3-13.5-.1-37.9-.1-54.2.1zM1621.4 1993.8l-22.2.2v31l2.7.1c1.4 0 3.5.2 4.6.4 1.1.2 5.4.7 9.5 1.1 4.1.3 10.2.9 13.5 1.3l6 .6.2 136.6.1 136.7-7.6.7c-4.3.3-9 .8-10.7 1-1.6.2-6.1.7-10 1-3.8.4-7.3.9-7.6 1.1-.4.2-.6 7.3-.6 15.6l.2 15.2h78c93.7-.1 98.9-.3 128.5-6 20.3-3.9 47.6-15.3 66-27.6 12.9-8.6 30.5-26.3 39.2-39.3 7.9-11.9 17.3-31.6 19.3-40.5.1-.3.9-3 1.8-6 1.7-6.1 4.4-19 5.3-26 .3-2.5.7-13.3.9-24 .5-28.5-2.4-48.2-10.4-69.8-12.4-33.8-34.1-59.6-65.4-78-4.8-2.9-9-5.2-9.2-5.2-.2 0-3.3-1.3-6.7-2.8-3.5-1.6-7.6-3.4-9.3-4-4.6-1.7-23.7-7.3-26.5-7.7-1.4-.2-4.5-.8-7-1.4-2.5-.5-7.2-1.3-10.5-1.6-3.3-.4-6.9-.9-8-1.2-4-1-119.9-2.1-164.1-1.5zm144.3 34.8c33.8 8.4 57.4 41.4 64.9 90.8.3 2.1.8 4.8 1 6 1.9 9.6 2.6 53.5 1.2 68.4-5.7 56.6-28.5 95.9-61.8 106.3-7.9 2.5-13.3 3.3-22.5 3.3l-7 .1-.5-9c-.6-9.7-.8-244.1-.2-259.1l.3-9.1 8.9.3c4.9.1 12 1 15.7 2zM1992.9 1993.8l-34.6.2v15.5c0 15 .1 15.5 2.1 15.6 1.2 0 3 .2 4.1.3 1.9.3 7.7.9 21.5 2.2 3 .3 6.3.8 7.2 1 1.7.5 1.8 8.5 1.7 135.7 0 74.4-.3 135.8-.7 136.4-.4.6-3.9 1.4-7.7 1.8-3.9.3-8.6.8-10.5 1-1.9.2-6.7.7-10.6 1.1l-7.1.6v15.4c0 8.5.3 15.4.6 15.5 2.4.4 279.5.3 280.2-.1.4-.3 1.1-7.5 1.5-16 .3-8.5.7-18.7.9-22.5.2-3.9.6-16 1-27s.9-20.8 1.1-21.8c.3-1.6-1.4-1.7-24.6-1.7h-24.8l-.7 4.2c-.4 2.4-.9 5.2-1.1 6.3-1.2 6.2-2.4 13.5-2.9 17-.3 2.2-.8 5.1-1.1 6.5-.8 4.7-1.2 6.5-2.4 14-.6 4.1-1.4 8.3-1.6 9.2-.5 1.7-3.4 1.8-42.4 1.8h-41.8l-.4-6.8c-.1-3.7-.3-33-.3-65.2v-58.5h24.3c15.7 0 24.2.3 24.3 1 0 .5.2 1.7.4 2.5.5 2.7 1.5 9 2 13.3.3 2.3.7 5.3 1 6.7.3 1.3.7 4.2 1 6.5 1.2 8.1-.2 7.5 18 7.5h16.4v-108.9l-16.6.2-16.7.2-3.1 18.5-3 18.5-24.4.3-24.4.2.6-58.2c.3-32.1.6-58.4.6-58.6.1-.1 16.8-.2 37.1-.2 28.9 0 37 .3 37.1 1.2 0 .7.2 2.4.5 3.8.2 1.4 1.6 9.2 3 17.5 1.4 8.2 2.7 16.1 2.9 17.5.3 1.4 1 6 1.7 10.2l1.2 7.8h49.7l-.6-13.8c-.4-7.5-.8-17.3-1-21.7-.2-4.4-.6-16.3-1-26.5-.5-10.2-.8-20.4-.9-22.7l-.1-4.3h-4.5c-2.5 0-47.9-.1-101-.3-53.1-.1-112.1-.1-131.1.1zM719.5 2080c-19.1 3.3-38 11.8-56 25.5-7.6 5.8-9.3 7.2-17.6 15.2-3.1 3-5.6 4.8-5.6 4.1-.1-1.4-1.4-15.4-1.8-19.8-.6-5.5-1.8-18.6-1.8-19.8 0-.8-1.8-2.6-3.9-4-4.8-3.1 0-4.7-44 14.5l-33.8 14.8V2128.8l5.8.7c3.1.3 7.1.8 8.7 1 8.1 1 12.5 1.5 18.5 2 3.6.3 7 .7 7.6.9 1.6.6 1.9 14.9 1.9 98.4-.1 61-.3 77.5-1.3 78.1-.7.4-5.9 1.6-11.5 2.6s-10.4 1.9-10.7 2c-.3.1-4 .7-8.2 1.5l-7.8 1.3v9.2c0 6.6.4 9.4 1.3 9.7 1 .3 115.5.2 119.5-.1.9-.1 1.2-2.7 1.2-9.4v-9.3l-13.7-2.8c-7.6-1.5-15.4-3-17.3-3.3-1.9-.3-3.9-.9-4.4-1.3-1.8-1.7-2.9-160.3-1.1-162.5 2.1-2.6 16.2-12.8 24-17.4 11.1-6.5 19.6-9.9 32-12.8 4.5-1 23.1-.9 27.9.2 10.2 2.4 18.1 8 22.3 15.9 1.8 3.4 5.4 13.6 4.8 13.6-.3 0 0 1.1.5 2.5s1.3 6 1.7 10.2c.7 7.3.9 87.8.3 131l-.3 19.2-4.6 1c-2.5.5-6.4 1.3-8.6 1.6-4.6.8-7 1.3-10.5 2-1.4.4-5.3 1.1-8.7 1.7l-6.3 1.1-.1 3.6c-.2 5.6.1 14.3.5 15 .3.5 115.5.7 120.2.2.6-.1 1-3.7 1-9.5v-9.4l-9.5-1.8c-5.3-1-9.8-1.9-10.1-1.9-2.6-.5-9.7-1.9-10.2-2.1-.5-.1-1.6-.2-2.5-.3-1-.1-2.4-.5-3.1-1-1.4-.9-1.5-4.1-2.7-118.6-.4-44.1-.4-44.1-5-64.9-2.9-13.1-11.9-28.3-21.3-35.8-4.3-3.5-16.3-9.5-20.7-10.3-7.8-1.4-10.4-1.7-17.4-1.9-4.2-.2-12.1.5-17.6 1.4zM941.5 2082.4c-4.4 1.8-18.1 7.2-30.5 12.1-12.4 4.8-26.5 10.4-31.5 12.4l-9 3.6-.1 9.3c0 7.7.2 9.2 1.5 9.3.9 0 2.5.2 3.6.3 1.1.2 4.9.6 8.5 1 3.6.4 7.9.9 9.5 1.1 1.7.2 6.2.7 10 1 3.9.4 7.3 1 7.8 1.4 1.4 1.3 2 31 1.8 91.6-.3 72.4-.4 83.2-1.4 84.2-.8.7-1.3.8-7.7 1.9-1.9.3-9.6 1.8-17 3.2l-13.4 2.7-.1 9.2c0 5.6.3 9.4 1 9.6.5.1 28 .2 61 .2l59.9-.1v-18.8l-3.5-.8c-4.4-1-22.6-4.8-25.9-5.4-7.5-1.3-6.9 0-7.2-15.2-.4-16.9 0-190.1.4-203.2l.4-9.5-3.4-2.2c-4.2-2.9-5-2.8-14.7 1.1zM310.8 2084.6c-.2.1-3.9.5-8.3.8-4.4.4-9.1.8-10.5 1-1.4.3-6.3.8-11 1.1-4.7.4-9.8.8-11.5 1-1.6.3-6.1.7-10 1-3.8.3-7.9.8-9 1-1.1.2-3.1.4-4.5.4-2.6.1-2.6.1-2.5 9.2 0 7 .3 9.2 1.5 9.8.8.5 7.6 2 15 3.5s15.1 3.2 17.1 3.7l3.6.9-.4 38.3c-.9 63.3-.8 112.9 0 118.7 3.1 22.6 8 36.2 17 47.9 8.7 11.3 20.1 17.4 38.2 20.6 5.8 1 21.1.5 29.1-.9 24.3-4.4 45.3-16.1 65.7-36.8 5.4-5.5 10-9.8 10.2-9.6.1.1.6 3.2.9 6.8.8 8.3 1.6 15.7 2.1 19.5.8 6.4 1.7 16.5 1.5 17.1-.3 1.1 2.4 2.4 4 1.9.8-.2 5.8-.6 11-1 10.9-.6 21.3-1.4 28.5-2 2.8-.3 9.1-.8 14-1.1 9.5-.7 14.6-1.1 15.7-1.3.9-.1.8-18-.1-18.5-.4-.3-1.8-.7-3.2-1-8.2-1.6-27.8-5.7-29.8-6.1l-2.3-.6.5-101.2c.4-55.7.8-105.4 1-110.4.3-9 .3-9.3-2.4-11.9-3-2.9-2.3-2.8-22.4-.8-2.7.2-7 .6-9.5.9-2.5.2-7.4.7-11 1.1-3.6.3-7.8.8-9.5.9-5.2.5-17.9 1.7-20.5 2-1.4.2-3.3.4-4.2.4-1.6.1-1.8 1.2-1.8 9.6 0 5.2.2 9.5.4 9.5s6.8 1.4 14.7 3.1c7.9 1.7 15.5 3.3 16.9 3.5 5.9 1.1 5.5 0 5.3 18.6-.1 9.5-.5 44.3-.8 77.3l-.6 60-3.2 3c-22.9 21.7-55.5 33.9-80.2 30.1-16.3-2.5-27.6-15.9-30.2-35.6-.3-1.9-.8-5.1-1.2-7-.9-4-.6-114 .3-135 1.7-38.9 1.7-38.6-.8-41.4-1.9-2.3-2.9-2.6-7.4-2.5-2.8.1-5.3.3-5.4.5z"/></svg>