<?xml version="1.0" encoding="UTF-8" standalone="no"?>
<!-- Created with Inkscape (http://www.inkscape.org/) -->

<svg
   xmlns:dc="http://purl.org/dc/elements/1.1/"
   xmlns:cc="http://creativecommons.org/ns#"
   xmlns:rdf="http://www.w3.org/1999/02/22-rdf-syntax-ns#"
   xmlns:svg="http://www.w3.org/2000/svg"
   xmlns="http://www.w3.org/2000/svg"
   xmlns:sodipodi="http://sodipodi.sourceforge.net/DTD/sodipodi-0.dtd"
   xmlns:inkscape="http://www.inkscape.org/namespaces/inkscape"
   width="128.10213mm"
   height="34.135727mm"
   viewBox="0 0 128.10213 34.135727"
   version="1.1"
   id="svg8"
   inkscape:export-filename="/home/dylan/bitmap.png"
   inkscape:export-xdpi="96"
   inkscape:export-ydpi="96"
   inkscape:version="0.92.2 5c3e80d, 2017-08-06"
   sodipodi:docname="drawing.svg">
  <defs
     id="defs2" />
  <sodipodi:namedview
     id="base"
     pagecolor="#ffffff"
     bordercolor="#666666"
     borderopacity="1.0"
     inkscape:pageopacity="0.0"
     inkscape:pageshadow="2"
     inkscape:zoom="2.8822787"
     inkscape:cx="307.07991"
     inkscape:cy="-35.46139"
     inkscape:document-units="mm"
     inkscape:current-layer="layer1"
     showgrid="false"
     inkscape:window-width="3200"
     inkscape:window-height="1740"
     inkscape:window-x="0"
     inkscape:window-y="60"
     inkscape:window-maximized="0"
     fit-margin-top="0"
     fit-margin-left="0"
     fit-margin-right="0"
     fit-margin-bottom="0" />
  <metadata
     id="metadata5">
    <rdf:RDF>
      <cc:Work
         rdf:about="">
        <dc:format>image/svg+xml</dc:format>
        <dc:type
           rdf:resource="http://purl.org/dc/dcmitype/StillImage" />
        <dc:title></dc:title>
      </cc:Work>
    </rdf:RDF>
  </metadata>
  <g
     inkscape:label="Layer 1"
     inkscape:groupmode="layer"
     id="layer1"
     transform="translate(-46.630118,-168.99344)">
    <text
       xml:space="preserve"
       style="font-style:normal;font-variant:normal;font-weight:normal;font-stretch:normal;font-size:10.58333302px;line-height:1.25;font-family:'Source Sans Pro';-inkscape-font-specification:'Source Sans Pro';letter-spacing:0px;word-spacing:0px;fill:#000000;fill-opacity:1;stroke:none;stroke-width:0.26458332"
       x="86.595329"
       y="198.64482"
       id="text3709"><tspan
         sodipodi:role="line"
         id="tspan3707"
         x="86.595329"
         y="207.90524"
         style="font-style:normal;font-variant:normal;font-weight:normal;font-stretch:normal;font-family:'Source Sans Pro';-inkscape-font-specification:'Source Sans Pro';stroke-width:0.26458332" /></text>
    <text
       xml:space="preserve"
       style="font-style:normal;font-weight:normal;font-size:23.35818863px;line-height:1.25;font-family:sans-serif;letter-spacing:0px;word-spacing:0px;fill:#000000;fill-opacity:1;stroke:none;stroke-width:0.58395469"
       x="85.206879"
       y="191.77145"
       id="text3713"><tspan
         sodipodi:role="line"
         id="tspan3711"
         x="85.206879"
         y="191.77145"
         style="stroke-width:0.58395469"><tspan
           style="font-style:normal;font-variant:normal;font-weight:normal;font-stretch:normal;font-family:'Source Serif Pro';-inkscape-font-specification:'Source Serif Pro';stroke-width:0.58395469"
           id="tspan3717">uni</tspan><tspan
           id="tspan3721"
           style="font-style:normal;font-variant:normal;font-weight:900;font-stretch:normal;font-family:'Source Serif Pro';-inkscape-font-specification:'Source Serif Pro Heavy';stroke-width:0.58395469">RIDE</tspan></tspan></text>
    <text
       xml:space="preserve"
       style="font-style:normal;font-weight:normal;font-size:10.58333302px;line-height:1.25;font-family:sans-serif;letter-spacing:0px;word-spacing:0px;fill:#000000;fill-opacity:1;stroke:none;stroke-width:0.26458332"
       x="92.742523"
       y="179.66867"
       id="text3725"><tspan
         sodipodi:role="line"
         x="92.742523"
         y="189.03244"
         style="stroke-width:0.26458332"
         id="tspan3727" /></text>
    <text
       xml:space="preserve"
       style="font-style:normal;font-weight:normal;font-size:12.64107323px;line-height:1.25;font-family:sans-serif;letter-spacing:0px;word-spacing:0px;fill:#000000;fill-opacity:1;stroke:none;stroke-width:0.31602681"
       x="87.642456"
       y="201.24986"
       id="text3733"><tspan
         sodipodi:role="line"
         id="tspan3731"
         x="87.642456"
         y="201.24986"
         style="font-style:normal;font-variant:normal;font-weight:normal;font-stretch:normal;font-size:8.42738247px;font-family:Raleway;-inkscape-font-specification:Raleway;stroke-width:0.31602681">You + I ride together</tspan></text>
    <g
       style="fill:#000000;stroke:none"
       transform="matrix(0.00484716,0,0,-0.00484716,43.179163,206.8893)"
       id="g16">
      <path
         inkscape:connector-curvature="0"
         d="m 3955,7815 c -11,-2 -94,-9 -185,-15 -643,-44 -1125,-198 -1387,-443 -49,-46 -67,-57 -83,-52 -30,9 -47,-10 -55,-58 -3,-23 -12,-71 -20,-107 -7,-36 -21,-103 -30,-150 -9,-47 -23,-114 -30,-150 -7,-36 -21,-103 -30,-150 -9,-47 -23,-114 -30,-150 -7,-36 -21,-103 -30,-150 -9,-47 -23,-114 -30,-150 -7,-36 -21,-103 -30,-150 -36,-178 -51,-241 -60,-241 -6,0 -12,8 -13,18 -11,52 -36,83 -86,106 -52,24 -53,25 -59,78 -4,31 -14,61 -25,71 -21,22 -110,33 -334,43 -139,7 -149,6 -182,-14 -33,-21 -35,-25 -41,-97 -4,-42 -5,-112 -3,-156 7,-122 2,-120 268,-115 173,2 221,6 245,19 44,23 63,49 67,88 3,37 21,48 48,30 12,-7 15,-29 13,-102 -2,-87 4,-107 29,-108 4,0 16,10 27,22 41,44 38,-6 -17,-237 -16,-66 -19,-70 -47,-73 -16,-2 -36,-11 -43,-20 -16,-21 -17,-183 -1,-199 9,-9 9,-27 -1,-73 -16,-77 -10,-84 60,-69 126,27 268,-19 368,-120 30,-31 84,-100 119,-154 77,-117 233,-420 309,-603 8,-20 33,-74 54,-120 22,-46 40,-87 40,-90 0,-13 241,-494 283,-565 24,-41 46,-81 50,-89 4,-8 16,-28 27,-45 11,-16 23,-37 27,-45 29,-56 118,-176 173,-231 l 65,-67 557,-7 c 307,-4 809,-4 1115,0 l 558,7 65,67 c 55,55 144,175 173,231 4,8 16,29 27,45 11,17 23,37 27,45 3,8 18,33 32,55 34,55 219,419 271,535 23,52 60,132 81,178 22,46 39,85 39,87 0,8 72,160 156,331 99,201 198,356 276,435 99,100 232,144 362,120 38,-7 63,-8 69,-2 6,6 5,32 -3,71 -10,46 -10,64 -1,73 16,16 15,191 -1,205 -7,6 -26,12 -42,14 -28,3 -31,8 -47,73 -35,143 -51,226 -45,242 6,14 9,13 27,-5 11,-12 23,-22 27,-22 25,1 31,21 29,108 -2,73 1,95 13,102 27,18 45,7 48,-30 4,-39 23,-65 67,-88 24,-13 72,-17 245,-19 276,-5 264,-12 268,149 4,156 -5,197 -46,221 -32,19 -43,19 -244,8 -201,-11 -265,-22 -282,-50 -4,-6 -10,-33 -13,-61 -6,-50 -8,-52 -57,-77 -55,-28 -66,-40 -81,-93 -6,-19 -15,-34 -20,-33 -6,1 -38,143 -72,315 -35,172 -69,345 -77,383 -8,39 -22,108 -31,155 -9,47 -23,114 -30,150 -7,36 -21,103 -30,150 -9,47 -23,114 -30,150 -8,36 -16,81 -20,101 -7,44 -26,63 -56,54 -17,-6 -32,3 -73,42 -106,103 -221,175 -391,245 -262,109 -530,166 -980,209 -107,11 -1227,23 -1280,14 z m 975,-254 c 579,-43 966,-93 1139,-147 25,-8 50,-14 58,-14 27,0 151,-66 219,-116 247,-185 347,-422 434,-1031 21,-147 10,-243 -33,-290 -25,-28 -98,-53 -156,-53 -45,0 -174,19 -261,38 -200,44 -674,109 -1065,146 -653,62 -1105,55 -1840,-30 -279,-32 -638,-86 -775,-116 -177,-39 -285,-46 -351,-23 -123,44 -134,118 -73,495 76,475 193,714 429,881 53,38 176,99 198,99 8,0 33,6 58,14 180,57 675,119 1169,146 113,7 210,14 215,16 18,7 485,-4 635,-15 z M 4597,6027 c 16,-15 16,-19 3,-27 -8,-5 -27,-10 -42,-10 -15,0 -30,-6 -35,-12 -4,-7 -6,-396 -4,-864 l 3,-852 -21,-7 c -11,-3 -26,-3 -32,1 -8,5 -10,234 -8,858 2,468 0,857 -4,864 -5,6 -20,12 -35,12 -34,0 -57,14 -47,30 13,22 50,30 127,27 59,-2 82,-6 95,-20 z m -307,-62 c 20,-9 46,-31 58,-49 21,-30 22,-43 22,-217 0,-101 -7,-312 -15,-469 -10,-196 -15,-511 -15,-1009 0,-804 1,-786 -67,-903 -55,-93 -126,-138 -222,-138 -96,0 -164,33 -290,139 -108,92 -220,268 -402,631 -71,144 -110,223 -226,470 -55,116 -135,276 -176,350 -32,58 -111,195 -127,220 -5,8 -19,33 -31,55 -11,22 -33,58 -48,80 -15,22 -30,47 -34,55 -4,8 -15,27 -25,42 -9,15 -41,67 -71,115 -30,48 -79,126 -110,173 -78,120 -91,146 -91,182 2,122 204,165 1190,252 96,9 247,22 335,30 190,17 296,15 345,-9 z m 719,10 c 1353,-115 1549,-150 1551,-284 0,-34 -18,-66 -166,-296 -35,-55 -68,-109 -74,-120 -6,-11 -18,-32 -28,-47 -26,-40 -104,-170 -120,-198 -7,-14 -22,-38 -32,-55 -11,-16 -23,-37 -27,-45 -3,-8 -16,-31 -28,-50 -50,-81 -156,-286 -238,-460 -231,-491 -314,-654 -433,-851 -89,-147 -145,-212 -248,-291 -101,-76 -154,-98 -237,-98 -93,0 -164,43 -220,133 -70,114 -69,100 -69,902 0,494 -5,809 -15,1005 -8,157 -15,370 -15,474 0,215 7,239 77,269 73,31 92,32 322,12 z M 4525,4153 c 9,-21 23,-45 31,-54 9,-10 18,-44 21,-76 5,-55 3,-61 -29,-103 -24,-31 -41,-45 -58,-45 -17,0 -34,14 -58,45 -32,42 -34,48 -29,103 3,32 12,66 21,76 8,9 22,33 31,54 10,25 22,37 35,37 13,0 25,-12 35,-37 z m 10,-430 c 13,-13 15,-26 10,-62 -12,-83 -17,-413 -5,-425 5,-5 10,-44 10,-85 0,-58 -5,-84 -20,-108 -45,-75 -100,-16 -100,108 0,41 5,80 10,85 12,12 7,342 -5,425 -8,54 9,79 55,79 16,0 36,-7 45,-17 z"
         id="path4" />
      <path
         inkscape:connector-curvature="0"
         d="m 1880,4993 c -8,-3 -37,-16 -63,-29 -27,-13 -58,-24 -70,-24 -26,0 -177,-31 -261,-54 -310,-83 -522,-226 -611,-410 -70,-146 -110,-312 -146,-601 -28,-228 -20,-758 13,-844 l 10,-26 14,27 c 10,19 25,29 50,34 36,7 192,-5 404,-31 319,-38 686,-60 1266,-75 187,-5 431,-12 542,-16 239,-8 232,-13 144,104 -116,152 -310,503 -465,842 -83,181 -137,302 -137,307 0,13 -215,442 -241,481 -16,24 -29,45 -29,48 0,11 -110,151 -141,180 -76,70 -211,112 -279,87 z m 45,-702 c 108,-35 172,-71 237,-135 120,-118 169,-236 169,-411 0,-92 -3,-121 -24,-177 -71,-196 -222,-333 -412,-374 -173,-38 -359,14 -485,135 -125,121 -179,248 -179,416 0,161 52,289 164,400 77,77 143,117 238,145 85,25 214,25 292,1 z"
         id="path6" />
      <path
         inkscape:connector-curvature="0"
         d="m 6955,4982 c -74,-26 -105,-45 -151,-94 -40,-41 -124,-152 -124,-162 0,-3 -13,-24 -29,-48 -30,-45 -191,-364 -230,-458 -13,-30 -41,-92 -62,-138 -22,-46 -39,-85 -39,-87 0,-14 -183,-390 -268,-550 -75,-141 -180,-313 -244,-397 -32,-42 -58,-84 -58,-92 0,-19 -18,-19 440,-6 843,24 1230,45 1565,85 224,26 373,38 409,31 25,-5 40,-15 50,-34 l 14,-27 10,26 c 23,58 34,264 29,507 -11,521 -94,892 -237,1055 -111,126 -305,232 -535,293 -87,23 -236,54 -262,54 -12,0 -44,12 -73,26 -66,33 -140,39 -205,16 z m 387,-691 c 99,-28 164,-68 243,-146 112,-111 164,-239 164,-400 0,-169 -55,-296 -181,-416 -236,-226 -617,-186 -817,85 -122,166 -140,424 -41,602 128,230 391,344 632,275 z"
         id="path8" />
      <path
         inkscape:connector-curvature="0"
         d="m 1004,2767 c -3,-8 -4,-54 -2,-103 l 3,-89 135,-16 c 212,-26 337,-32 345,-19 7,11 8,201 1,208 -6,6 -332,32 -404,32 -51,0 -74,-4 -78,-13 z"
         id="path10" />
      <path
         inkscape:connector-curvature="0"
         d="m 7636,2764 c -76,-7 -141,-16 -145,-19 -9,-9 -14,-160 -7,-191 l 7,-26 107,7 c 59,4 168,15 242,24 l 135,17 v 100 99 l -100,1 c -55,1 -162,-4 -239,-12 z"
         id="path12" />
      <path
         inkscape:connector-curvature="0"
         d="m 870,2433 c 0,-134 58,-614 96,-798 64,-306 110,-402 218,-457 36,-19 54,-20 250,-16 225,5 274,14 324,60 53,50 86,271 102,678 6,140 14,258 19,263 5,5 25,4 47,-2 140,-36 249,-55 479,-85 463,-60 1304,-142 1862,-182 204,-14 242,-14 445,0 569,41 1355,117 1863,182 215,27 339,49 479,85 22,6 42,7 47,2 5,-5 13,-123 19,-263 16,-403 50,-628 103,-678 49,-46 98,-55 323,-60 196,-4 214,-3 250,16 21,11 51,31 66,45 86,80 159,355 212,807 22,180 41,429 33,436 -3,3 -36,1 -74,-5 -37,-5 -131,-17 -208,-25 -77,-9 -201,-23 -275,-31 -380,-41 -753,-73 -995,-85 -499,-25 -1971,-47 -2505,-38 -1252,20 -1698,35 -2010,63 -477,44 -955,95 -1086,115 -86,14 -84,14 -84,-27 z"
         id="path14" />
    </g>
  </g>
</svg>
